<?xml version="1.0" encoding="UTF-8"?>
<!DOCTYPE svg PUBLIC "-//W3C//DTD SVG 1.1//EN" "http://www.w3.org/Graphics/SVG/1.1/DTD/svg11.dtd">
<svg xmlns="http://www.w3.org/2000/svg" version="1.1" width="1597px" height="527px" style="shape-rendering:geometricPrecision; text-rendering:geometricPrecision; image-rendering:optimizeQuality; fill-rule:evenodd; clip-rule:evenodd" xmlns:xlink="http://www.w3.org/1999/xlink">
<g><path style="opacity:1" fill="#edf0f0" d="M -0.5,-0.5 C 0.166667,-0.5 0.833333,-0.5 1.5,-0.5C 1.5,175.167 1.5,350.833 1.5,526.5C 0.833333,526.5 0.166667,526.5 -0.5,526.5C -0.5,350.833 -0.5,175.167 -0.5,-0.5 Z"/></g>
<g><path style="opacity:1" fill="#fefefe" d="M 1.5,-0.5 C 533.167,-0.5 1064.83,-0.5 1596.5,-0.5C 1596.5,175.167 1596.5,350.833 1596.5,526.5C 1064.83,526.5 533.167,526.5 1.5,526.5C 1.5,350.833 1.5,175.167 1.5,-0.5 Z"/></g>
<g><path style="opacity:1" fill="#562933" d="M 597.5,60.5 C 597.511,62.0174 598.177,63.1841 599.5,64C 605.362,68.0953 611.028,72.4287 616.5,77C 618.169,78.669 620.169,79.5023 622.5,79.5C 622.33,78.1779 622.663,77.0113 623.5,76C 628.023,72.8274 633.023,71.8274 638.5,73C 640.359,74.5578 641.859,76.3911 643,78.5C 644.217,84.101 644.717,89.7676 644.5,95.5C 641.482,95.2962 638.482,94.9629 635.5,94.5C 619.51,89.535 603.177,86.035 586.5,84C 575.487,83.6244 564.487,83.6244 553.5,84C 555.725,77.6052 557.225,71.1052 558,64.5C 557.422,67.5298 556.255,70.1965 554.5,72.5C 556.193,63.616 560.193,55.7827 566.5,49C 571.335,48.4135 576.001,49.0802 580.5,51C 584.629,53.3795 588.963,55.3795 593.5,57C 595.093,57.9487 596.426,59.1154 597.5,60.5 Z"/></g>
<g><path style="opacity:1" fill="#060304" d="M 635.5,94.5 C 639.159,96.3422 643.159,97.3422 647.5,97.5C 647.216,95.5853 647.549,93.9187 648.5,92.5C 648.5,94.5 648.5,96.5 648.5,98.5C 648.414,99.4959 648.748,100.329 649.5,101C 645.93,102.208 642.597,103.708 639.5,105.5C 636.445,106.036 633.445,106.869 630.5,108C 629.833,108.667 629.167,109.333 628.5,110C 635.5,110.333 642.5,110.667 649.5,111C 654.057,111.147 658.391,111.981 662.5,113.5C 662.026,117.157 660.693,117.324 658.5,114C 656.19,113.503 653.857,113.337 651.5,113.5C 652.112,121.173 652.778,128.84 653.5,136.5C 654.5,136.5 655.5,136.5 656.5,136.5C 657.167,136.5 657.5,136.833 657.5,137.5C 656.5,137.5 655.5,137.5 654.5,137.5C 654.663,139.857 654.497,142.19 654,144.5C 652.357,137.259 651.357,129.925 651,122.5C 650.194,118.842 649.027,115.342 647.5,112C 636.5,111.333 625.5,111.333 614.5,112C 611.305,112.181 608.305,112.681 605.5,113.5C 603.5,113.5 601.5,113.5 599.5,113.5C 592.303,113.441 585.303,114.441 578.5,116.5C 578.577,115.25 579.244,114.417 580.5,114C 590.807,112.577 601.14,111.41 611.5,110.5C 609.726,109.813 608.059,108.98 606.5,108C 588.833,107.333 571.167,107.333 553.5,108C 552.473,108.513 551.473,109.013 550.5,109.5C 549.836,106.854 549.502,104.021 549.5,101C 550.78,92.1116 552.113,83.2782 553.5,74.5C 553.328,73.5084 553.662,72.8417 554.5,72.5C 556.255,70.1965 557.422,67.5298 558,64.5C 557.225,71.1052 555.725,77.6052 553.5,84C 564.487,83.6244 575.487,83.6244 586.5,84C 603.177,86.035 619.51,89.535 635.5,94.5 Z"/></g>
<g><path style="opacity:1" fill="#41292e" d="M 597.5,60.5 C 603.656,63.632 609.323,67.632 614.5,72.5C 619.331,74.9599 623.665,74.1266 627.5,70C 632.202,69.1717 636.869,69.3384 641.5,70.5C 643.28,73.898 644.946,77.2313 646.5,80.5C 646.534,84.6295 647.201,88.6295 648.5,92.5C 647.549,93.9187 647.216,95.5853 647.5,97.5C 643.159,97.3422 639.159,96.3422 635.5,94.5C 638.482,94.9629 641.482,95.2962 644.5,95.5C 644.717,89.7676 644.217,84.101 643,78.5C 641.859,76.3911 640.359,74.5578 638.5,73C 633.023,71.8274 628.023,72.8274 623.5,76C 622.663,77.0113 622.33,78.1779 622.5,79.5C 620.169,79.5023 618.169,78.669 616.5,77C 611.028,72.4287 605.362,68.0953 599.5,64C 598.177,63.1841 597.511,62.0174 597.5,60.5 Z"/></g>
<g><path style="opacity:1" fill="#a6a5a5" d="M 646.5,80.5 C 648.711,85.8285 649.711,91.4951 649.5,97.5C 660.172,97.3335 670.839,97.5002 681.5,98C 682.949,99.117 684.616,99.7837 686.5,100C 688.096,107.314 686.096,113.48 680.5,118.5C 683.571,112.96 684.904,106.96 684.5,100.5C 672.634,98.6363 660.634,97.9696 648.5,98.5C 648.5,96.5 648.5,94.5 648.5,92.5C 647.201,88.6295 646.534,84.6295 646.5,80.5 Z"/></g>
<g><path style="opacity:1" fill="#562731" d="M 656.5,136.5 C 655.5,136.5 654.5,136.5 653.5,136.5C 652.778,128.84 652.112,121.173 651.5,113.5C 653.857,113.337 656.19,113.503 658.5,114C 660.693,117.324 662.026,117.157 662.5,113.5C 658.391,111.981 654.057,111.147 649.5,111C 642.5,110.667 635.5,110.333 628.5,110C 629.167,109.333 629.833,108.667 630.5,108C 633.445,106.869 636.445,106.036 639.5,105.5C 653.378,100.486 667.712,99.1522 682.5,101.5C 682.665,104.518 682.498,107.518 682,110.5C 680.339,113.159 678.672,115.825 677,118.5C 670.566,125.11 663.733,131.11 656.5,136.5 Z"/></g>
<g><path style="opacity:1" fill="#50242e" d="M 578.5,116.5 C 570.704,117.56 563.037,118.56 555.5,119.5C 550.968,119.182 546.634,119.515 542.5,120.5C 533.5,120.5 524.5,120.5 515.5,120.5C 515.5,119.5 515.5,118.5 515.5,117.5C 527.797,116.806 539.464,114.139 550.5,109.5C 551.473,109.013 552.473,108.513 553.5,108C 571.167,107.333 588.833,107.333 606.5,108C 608.059,108.98 609.726,109.813 611.5,110.5C 601.14,111.41 590.807,112.577 580.5,114C 579.244,114.417 578.577,115.25 578.5,116.5 Z"/></g>
<g><path style="opacity:1" fill="#164a49" d="M 599.5,113.5 C 585.421,116.479 571.087,118.813 556.5,120.5C 556.5,119.833 556.167,119.5 555.5,119.5C 563.037,118.56 570.704,117.56 578.5,116.5C 585.303,114.441 592.303,113.441 599.5,113.5 Z"/></g>
<g><path style="opacity:1" fill="#1fa29d" d="M 599.5,113.5 C 601.5,113.5 603.5,113.5 605.5,113.5C 619.833,113.5 634.167,113.5 648.5,113.5C 652.607,140.682 655.774,168.016 658,195.5C 658.5,202.826 658.666,210.159 658.5,217.5C 656.712,217.215 655.045,217.548 653.5,218.5C 669.267,230.434 682.434,244.767 693,261.5C 693.816,262.823 694.983,263.489 696.5,263.5C 699.409,270.453 702.243,277.453 705,284.5C 705.333,284.167 705.667,283.833 706,283.5C 706.49,284.793 706.657,286.127 706.5,287.5C 704.5,287.5 702.5,287.5 700.5,287.5C 698.456,285.781 696.456,284.114 694.5,282.5C 688.676,273.674 681.009,267.007 671.5,262.5C 669.955,261.548 668.288,261.215 666.5,261.5C 665.833,261.5 665.167,261.5 664.5,261.5C 664.44,260.957 664.107,260.624 663.5,260.5C 663.167,272 662.833,283.5 662.5,295C 662.501,306.853 663.168,318.353 664.5,329.5C 666.233,333.565 669.233,336.232 673.5,337.5C 679.905,345.308 686.072,353.308 692,361.5C 694.291,370.379 693.625,379.046 690,387.5C 686.622,390.876 683.622,394.543 681,398.5C 668.159,412.324 662.992,409.824 665.5,391C 665.428,386.675 664.428,382.842 662.5,379.5C 661.878,377.665 660.544,376.498 658.5,376C 647.513,374.145 636.513,372.478 625.5,371C 608.687,369.987 592.02,370.82 575.5,373.5C 575.831,381.86 575.498,390.193 574.5,398.5C 572.401,400.534 570.068,400.868 567.5,399.5C 559.639,392.486 553.139,384.486 548,375.5C 547.168,372.004 546.335,368.504 545.5,365C 545.329,361.871 546.162,359.037 548,356.5C 554.557,344.118 563.39,333.785 574.5,325.5C 576.852,324.457 577.019,323.124 575,321.5C 574.799,300.798 573.966,280.131 572.5,259.5C 571.167,259.5 569.833,259.5 568.5,259.5C 568.5,263.5 568.5,267.5 568.5,271.5C 566.903,272.09 565.569,273.09 564.5,274.5C 559.55,283.566 554.217,292.4 548.5,301C 547.972,303.862 547.305,306.696 546.5,309.5C 544.505,311.11 542.339,312.443 540,313.5C 538.229,317.98 537.062,322.647 536.5,327.5C 534.821,329.104 532.821,329.771 530.5,329.5C 530.335,326.482 530.502,323.482 531,320.5C 535.375,312.626 533.541,306.793 525.5,303C 521.582,301.844 517.582,301.344 513.5,301.5C 514.512,300.128 515.512,298.795 516.5,297.5C 521.262,297.713 525.928,298.213 530.5,299C 532.291,296.894 532.958,294.394 532.5,291.5C 529.86,290.552 527.193,289.552 524.5,288.5C 525.701,286.091 527.367,284.091 529.5,282.5C 533.377,285.707 536.044,289.707 537.5,294.5C 538.5,294.5 539.5,294.5 540.5,294.5C 540.5,295.5 540.5,296.5 540.5,297.5C 541.5,297.5 542.5,297.5 543.5,297.5C 549.2,277.011 558.033,258.011 570,240.5C 569.034,221.169 567.867,201.836 566.5,182.5C 570.198,182.552 573.865,182.886 577.5,183.5C 578.833,183.5 580.167,183.5 581.5,183.5C 592.659,185.927 603.992,186.094 615.5,184C 618.267,183.131 620.934,181.964 623.5,180.5C 624.8,177.691 624.8,175.024 623.5,172.5C 622.091,170.583 620.424,168.75 618.5,167C 612.999,164.797 607.665,162.297 602.5,159.5C 598.424,155.485 594.424,151.485 590.5,147.5C 588.454,141.775 584.454,138.775 578.5,138.5C 581.909,135.171 582.242,131.504 579.5,127.5C 577.887,126.573 576.221,125.739 574.5,125C 568.511,124.301 562.511,123.801 556.5,123.5C 556.5,122.5 556.5,121.5 556.5,120.5C 571.087,118.813 585.421,116.479 599.5,113.5 Z"/></g>
<g><path style="opacity:1" fill="#413537" d="M 553.5,74.5 C 552.113,83.2782 550.78,92.1116 549.5,101C 549.502,104.021 549.836,106.854 550.5,109.5C 539.464,114.139 527.797,116.806 515.5,117.5C 515.5,118.5 515.5,119.5 515.5,120.5C 524.5,120.5 533.5,120.5 542.5,120.5C 546.371,120.185 550.038,120.518 553.5,121.5C 534.491,122.754 515.491,122.754 496.5,121.5C 495.226,120.811 495.226,119.977 496.5,119C 511.296,115.709 526.296,113.043 541.5,111C 543.221,110.261 544.887,109.427 546.5,108.5C 547.924,99.1464 549.424,89.813 551,80.5C 551.845,78.3885 552.678,76.3885 553.5,74.5 Z"/></g>
<g><path style="opacity:1" fill="#c3c3c3" d="M 635.5,128.5 C 635.5,125.833 635.5,123.167 635.5,120.5C 629.529,121.241 623.529,121.575 617.5,121.5C 617.665,125.182 617.499,128.848 617,132.5C 616.617,133.056 616.117,133.389 615.5,133.5C 616.833,129.5 616.833,125.5 615.5,121.5C 616.209,120.596 617.209,120.263 618.5,120.5C 624.822,119.986 631.155,119.653 637.5,119.5C 638.055,123.012 637.388,126.012 635.5,128.5 Z"/></g>
<g><path style="opacity:1" fill="#372328" d="M 648.5,98.5 C 660.634,97.9696 672.634,98.6363 684.5,100.5C 684.904,106.96 683.571,112.96 680.5,118.5C 674.788,124.879 668.455,130.546 661.5,135.5C 659.938,135.733 658.605,136.4 657.5,137.5C 657.5,136.833 657.167,136.5 656.5,136.5C 663.733,131.11 670.566,125.11 677,118.5C 678.672,115.825 680.339,113.159 682,110.5C 682.498,107.518 682.665,104.518 682.5,101.5C 667.712,99.1522 653.378,100.486 639.5,105.5C 642.597,103.708 645.93,102.208 649.5,101C 648.748,100.329 648.414,99.4959 648.5,98.5 Z"/></g>
<g><path style="opacity:1" fill="#0d0f0f" d="M 618.5,120.5 C 617.209,120.263 616.209,120.596 615.5,121.5C 614.778,121.918 614.278,122.584 614,123.5C 613.586,123.043 613.086,122.709 612.5,122.5C 611.984,130.684 607.651,134.684 599.5,134.5C 601.063,137.893 603.729,139.226 607.5,138.5C 607.5,139.5 607.5,140.5 607.5,141.5C 606.833,141.5 606.167,141.5 605.5,141.5C 602.045,140.009 599.212,137.676 597,134.5C 595.648,131.429 594.148,128.429 592.5,125.5C 592.957,124.702 593.624,124.369 594.5,124.5C 597.491,125.371 600.491,126.371 603.5,127.5C 603.5,126.5 603.5,125.5 603.5,124.5C 602.127,124.657 600.793,124.49 599.5,124C 603.5,122.667 607.5,121.333 611.5,120C 614.039,119.204 616.372,119.371 618.5,120.5 Z"/></g>
<g><path style="opacity:1" fill="#f8f8f8" d="M 635.5,128.5 C 635.643,130.262 635.309,131.929 634.5,133.5C 631.036,136.27 627.37,138.77 623.5,141C 619.179,141.499 614.846,141.666 610.5,141.5C 610.5,140.5 610.5,139.5 610.5,138.5C 611.806,136.527 613.473,134.861 615.5,133.5C 616.117,133.389 616.617,133.056 617,132.5C 617.499,128.848 617.665,125.182 617.5,121.5C 623.529,121.575 629.529,121.241 635.5,120.5C 635.5,123.167 635.5,125.833 635.5,128.5 Z"/></g>
<g><path style="opacity:1" fill="#b6b7b7" d="M 496.5,121.5 C 515.491,122.754 534.491,122.754 553.5,121.5C 553.5,122.5 553.5,123.5 553.5,124.5C 552.5,124.5 551.5,124.5 550.5,124.5C 550.53,123.503 550.03,122.836 549,122.5C 532.198,123.645 515.365,123.812 498.5,123C 497.584,122.722 496.918,122.222 496.5,121.5 Z"/></g>
<g><path style="opacity:1" fill="#2f4342" d="M 556.5,123.5 C 562.511,123.801 568.511,124.301 574.5,125C 576.221,125.739 577.887,126.573 579.5,127.5C 582.242,131.504 581.909,135.171 578.5,138.5C 576.16,140.303 573.827,141.97 571.5,143.5C 568.034,145.092 564.367,145.758 560.5,145.5C 559.999,150.153 560.666,154.486 562.5,158.5C 561.167,158.5 559.833,158.5 558.5,158.5C 558.665,154.818 558.499,151.152 558,147.5C 557.5,147 557,146.5 556.5,146C 553.5,145.667 550.5,145.333 547.5,145C 546.944,144.617 546.611,144.117 546.5,143.5C 548.282,142.28 550.282,141.614 552.5,141.5C 552.389,142.117 552.056,142.617 551.5,143C 561.848,144.484 571.015,141.984 579,135.5C 580.176,131.74 579.01,128.907 575.5,127C 570.845,126.501 566.179,126.334 561.5,126.5C 561.436,130.22 560.936,133.886 560,137.5C 559.292,138.381 558.458,139.047 557.5,139.5C 559.023,134.995 560.023,130.328 560.5,125.5C 559.167,124.833 557.833,124.167 556.5,123.5 Z"/></g>
<g><path style="opacity:1" fill="#161516" d="M 542.5,120.5 C 546.634,119.515 550.968,119.182 555.5,119.5C 556.167,119.5 556.5,119.833 556.5,120.5C 556.5,121.5 556.5,122.5 556.5,123.5C 557.833,124.167 559.167,124.833 560.5,125.5C 557.833,125.5 555.167,125.5 552.5,125.5C 554.289,135.709 550.289,139.042 540.5,135.5C 540.343,134.127 540.51,132.793 541,131.5C 542.707,129.963 544.207,128.296 545.5,126.5C 547.167,125.833 548.833,125.167 550.5,124.5C 551.5,124.5 552.5,124.5 553.5,124.5C 553.5,123.5 553.5,122.5 553.5,121.5C 550.038,120.518 546.371,120.185 542.5,120.5 Z"/></g>
<g><path style="opacity:1" fill="#e5e6e6" d="M 552.5,141.5 C 554.167,140.833 555.833,140.167 557.5,139.5C 558.458,139.047 559.292,138.381 560,137.5C 560.936,133.886 561.436,130.22 561.5,126.5C 566.179,126.334 570.845,126.501 575.5,127C 579.01,128.907 580.176,131.74 579,135.5C 571.015,141.984 561.848,144.484 551.5,143C 552.056,142.617 552.389,142.117 552.5,141.5 Z"/></g>
<g><path style="opacity:1" fill="#315553" d="M 605.5,141.5 C 606.167,141.5 606.833,141.5 607.5,141.5C 608.272,140.306 609.272,139.306 610.5,138.5C 610.5,139.5 610.5,140.5 610.5,141.5C 614.846,141.666 619.179,141.499 623.5,141C 627.37,138.77 631.036,136.27 634.5,133.5C 635.309,131.929 635.643,130.262 635.5,128.5C 637.388,126.012 638.055,123.012 637.5,119.5C 631.155,119.653 624.822,119.986 618.5,120.5C 616.372,119.371 614.039,119.204 611.5,120C 607.5,121.333 603.5,122.667 599.5,124C 600.793,124.49 602.127,124.657 603.5,124.5C 603.5,125.5 603.5,126.5 603.5,127.5C 600.491,126.371 597.491,125.371 594.5,124.5C 610.787,117.844 627.787,114.844 645.5,115.5C 645.5,116.5 645.5,117.5 645.5,118.5C 643.5,118.5 641.5,118.5 639.5,118.5C 640.479,135.69 632.312,144.356 615,144.5C 612.167,144.167 609.333,143.833 606.5,143.5C 606.137,142.817 605.804,142.15 605.5,141.5 Z"/></g>
<g><path style="opacity:1" fill="#8d8d8d" d="M 543.5,130.5 C 544.833,130.5 546.167,130.5 547.5,130.5C 547.5,131.833 547.5,133.167 547.5,134.5C 546.167,134.5 544.833,134.5 543.5,134.5C 543.5,133.167 543.5,131.833 543.5,130.5 Z"/></g>
<g><path style="opacity:1" fill="#391f25" d="M 615.5,121.5 C 616.833,125.5 616.833,129.5 615.5,133.5C 613.473,134.861 611.806,136.527 610.5,138.5C 609.272,139.306 608.272,140.306 607.5,141.5C 607.5,140.5 607.5,139.5 607.5,138.5C 603.729,139.226 601.063,137.893 599.5,134.5C 607.651,134.684 611.984,130.684 612.5,122.5C 613.086,122.709 613.586,123.043 614,123.5C 614.278,122.584 614.778,121.918 615.5,121.5 Z"/></g>
<g><path style="opacity:1" fill="#5a5556" d="M 545.5,126.5 C 544.207,128.296 542.707,129.963 541,131.5C 540.51,132.793 540.343,134.127 540.5,135.5C 540.5,137.5 540.5,139.5 540.5,141.5C 536.828,138.087 536.661,134.42 540,130.5C 541.451,128.536 543.284,127.203 545.5,126.5 Z"/></g>
<g><path style="opacity:1" fill="#32181e" d="M 560.5,125.5 C 560.023,130.328 559.023,134.995 557.5,139.5C 555.833,140.167 554.167,140.833 552.5,141.5C 550.282,141.614 548.282,142.28 546.5,143.5C 544.315,143.296 542.315,142.63 540.5,141.5C 540.5,139.5 540.5,137.5 540.5,135.5C 550.289,139.042 554.289,135.709 552.5,125.5C 555.167,125.5 557.833,125.5 560.5,125.5 Z"/></g>
<g><path style="opacity:1" fill="#1e9f9a" d="M 562.5,158.5 C 560.666,154.486 559.999,150.153 560.5,145.5C 564.367,145.758 568.034,145.092 571.5,143.5C 572.708,142.766 574.041,142.433 575.5,142.5C 575.5,147.833 575.5,153.167 575.5,158.5C 571.167,158.5 566.833,158.5 562.5,158.5 Z"/></g>
<g><path style="opacity:1" fill="#f49a03" d="M 622.5,177.5 C 621.256,180.543 618.923,181.876 615.5,181.5C 601.833,181.5 588.167,181.5 574.5,181.5C 571.35,180.293 568.016,179.293 564.5,178.5C 562.009,177.459 562.009,176.626 564.5,176C 579.149,174.978 593.816,174.312 608.5,174C 609.973,173.29 610.64,172.124 610.5,170.5C 592.324,170.269 574.324,171.769 556.5,175C 542.171,175.5 527.837,175.667 513.5,175.5C 513.5,173.167 513.5,170.833 513.5,168.5C 523.719,165.708 534.053,163.208 544.5,161C 553.494,160.5 562.494,160.334 571.5,160.5C 572.167,160.5 572.833,160.5 573.5,160.5C 574.918,162.308 576.918,162.975 579.5,162.5C 579.5,155.833 579.5,149.167 579.5,142.5C 587.537,147.693 594.87,153.86 601.5,161C 609.054,163.555 615.887,167.388 622,172.5C 622.494,174.134 622.66,175.801 622.5,177.5 Z"/></g>
<g><path style="opacity:1" fill="#bd5c11" d="M 590.5,147.5 C 594.424,151.485 598.424,155.485 602.5,159.5C 607.665,162.297 612.999,164.797 618.5,167C 620.424,168.75 622.091,170.583 623.5,172.5C 623.784,174.415 623.451,176.081 622.5,177.5C 622.66,175.801 622.494,174.134 622,172.5C 615.887,167.388 609.054,163.555 601.5,161C 594.87,153.86 587.537,147.693 579.5,142.5C 579.5,149.167 579.5,155.833 579.5,162.5C 576.918,162.975 574.918,162.308 573.5,160.5C 574.833,160.5 576.167,160.5 577.5,160.5C 577.334,154.158 577.5,147.825 578,141.5C 579.726,140.424 581.559,140.257 583.5,141C 585.703,143.372 588.037,145.539 590.5,147.5 Z"/></g>
<g><path style="opacity:1" fill="#2b4c49" d="M 657.5,137.5 C 658.605,136.4 659.938,135.733 661.5,135.5C 660.297,137.634 658.463,138.968 656,139.5C 655.833,141 655.667,142.5 655.5,144C 659.027,170.314 661.694,196.814 663.5,223.5C 665.199,224.815 666.865,224.815 668.5,223.5C 668.579,224.93 668.246,226.264 667.5,227.5C 667.855,228.522 668.522,229.189 669.5,229.5C 670.833,231.5 672.5,233.167 674.5,234.5C 680.84,241.512 686.84,248.845 692.5,256.5C 693.604,258.389 694.937,260.055 696.5,261.5C 696.5,262.167 696.5,262.833 696.5,263.5C 694.983,263.489 693.816,262.823 693,261.5C 682.434,244.767 669.267,230.434 653.5,218.5C 655.045,217.548 656.712,217.215 658.5,217.5C 658.666,210.159 658.5,202.826 658,195.5C 655.774,168.016 652.607,140.682 648.5,113.5C 634.167,113.5 619.833,113.5 605.5,113.5C 608.305,112.681 611.305,112.181 614.5,112C 625.5,111.333 636.5,111.333 647.5,112C 649.027,115.342 650.194,118.842 651,122.5C 651.357,129.925 652.357,137.259 654,144.5C 654.497,142.19 654.663,139.857 654.5,137.5C 655.5,137.5 656.5,137.5 657.5,137.5 Z"/></g>
<g><path style="opacity:1" fill="#d3bfbc" d="M 540.5,141.5 C 542.315,142.63 544.315,143.296 546.5,143.5C 546.611,144.117 546.944,144.617 547.5,145C 550.5,145.333 553.5,145.667 556.5,146C 557,146.5 557.5,147 558,147.5C 558.499,151.152 558.665,154.818 558.5,158.5C 553.167,158.5 547.833,158.5 542.5,158.5C 542.611,157.883 542.944,157.383 543.5,157C 548.155,156.501 552.821,156.334 557.5,156.5C 557.613,153.951 556.946,151.618 555.5,149.5C 551.232,147.516 546.899,145.683 542.5,144C 541.619,143.292 540.953,142.458 540.5,141.5 Z"/></g>
<g><path style="opacity:1" fill="#5b7662" d="M 578.5,138.5 C 584.454,138.775 588.454,141.775 590.5,147.5C 588.037,145.539 585.703,143.372 583.5,141C 581.559,140.257 579.726,140.424 578,141.5C 577.5,147.825 577.334,154.158 577.5,160.5C 576.167,160.5 574.833,160.5 573.5,160.5C 572.833,160.5 572.167,160.5 571.5,160.5C 568.713,159.523 565.713,159.19 562.5,159.5C 562.5,159.167 562.5,158.833 562.5,158.5C 566.833,158.5 571.167,158.5 575.5,158.5C 575.5,153.167 575.5,147.833 575.5,142.5C 574.041,142.433 572.708,142.766 571.5,143.5C 573.827,141.97 576.16,140.303 578.5,138.5 Z"/></g>
<g><path style="opacity:1" fill="#d38966" d="M 542.5,158.5 C 547.833,158.5 553.167,158.5 558.5,158.5C 559.833,158.5 561.167,158.5 562.5,158.5C 562.5,158.833 562.5,159.167 562.5,159.5C 554.493,159.334 546.493,159.5 538.5,160C 531.362,161.986 524.362,164.153 517.5,166.5C 518.903,165.069 520.569,163.902 522.5,163C 528.979,160.589 535.646,159.089 542.5,158.5 Z"/></g>
<g><path style="opacity:1" fill="#cf640c" d="M 562.5,159.5 C 565.713,159.19 568.713,159.523 571.5,160.5C 562.494,160.334 553.494,160.5 544.5,161C 534.053,163.208 523.719,165.708 513.5,168.5C 514.287,166.896 515.62,166.229 517.5,166.5C 524.362,164.153 531.362,161.986 538.5,160C 546.493,159.5 554.493,159.334 562.5,159.5 Z"/></g>
<g><path style="opacity:1" fill="#cc6212" d="M 513.5,168.5 C 513.5,170.833 513.5,173.167 513.5,175.5C 527.837,175.667 542.171,175.5 556.5,175C 574.324,171.769 592.324,170.269 610.5,170.5C 610.64,172.124 609.973,173.29 608.5,174C 593.816,174.312 579.149,174.978 564.5,176C 562.009,176.626 562.009,177.459 564.5,178.5C 568.016,179.293 571.35,180.293 574.5,181.5C 570.466,181.495 566.466,181.162 562.5,180.5C 562.5,179.833 562.167,179.5 561.5,179.5C 545.736,177.703 529.736,176.87 513.5,177C 512.627,175.955 511.627,175.122 510.5,174.5C 509.212,172.965 509.212,171.299 510.5,169.5C 511.417,168.873 512.417,168.539 513.5,168.5 Z"/></g>
<g><path style="opacity:1" fill="#d8977e" d="M 510.5,174.5 C 511.627,175.122 512.627,175.955 513.5,177C 529.736,176.87 545.736,177.703 561.5,179.5C 561.5,179.833 561.5,180.167 561.5,180.5C 558.85,179.394 556.016,178.727 553,178.5C 539.487,179.793 525.987,179.627 512.5,178C 511.177,177.184 510.511,176.017 510.5,174.5 Z"/></g>
<g><path style="opacity:1" fill="#d1700d" d="M 574.5,181.5 C 588.167,181.5 601.833,181.5 615.5,181.5C 615.389,182.117 615.056,182.617 614.5,183C 603.53,184.658 592.53,184.825 581.5,183.5C 580.167,183.5 578.833,183.5 577.5,183.5C 576.5,182.833 575.5,182.167 574.5,181.5 Z"/></g>
<g><path style="opacity:1" fill="#6f664f" d="M 623.5,172.5 C 624.8,175.024 624.8,177.691 623.5,180.5C 620.934,181.964 618.267,183.131 615.5,184C 603.992,186.094 592.659,185.927 581.5,183.5C 592.53,184.825 603.53,184.658 614.5,183C 615.056,182.617 615.389,182.117 615.5,181.5C 618.923,181.876 621.256,180.543 622.5,177.5C 623.451,176.081 623.784,174.415 623.5,172.5 Z"/></g>
<g><path style="opacity:1" fill="#807f7f" d="M 739.5,202.5 C 727.167,201.167 714.833,201.167 702.5,202.5C 703.263,201.732 704.263,201.232 705.5,201C 716.167,200.333 726.833,200.333 737.5,201C 738.416,201.278 739.082,201.778 739.5,202.5 Z"/></g>
<g><path style="opacity:1" fill="#523e31" d="M 739.5,202.5 C 745.891,203.677 752.225,205.177 758.5,207C 765.122,210.595 771.789,214.095 778.5,217.5C 780.546,223.143 779.213,227.81 774.5,231.5C 765.23,237.772 756.563,244.772 748.5,252.5C 739.081,258.42 730.748,265.586 723.5,274C 725.833,274.333 728.167,274.667 730.5,275C 731.056,275.383 731.389,275.883 731.5,276.5C 726.5,276.5 721.5,276.5 716.5,276.5C 721.167,271.167 726.167,266.167 731.5,261.5C 736.42,259.245 740.42,255.912 743.5,251.5C 753.428,243.4 763.761,235.9 774.5,229C 777.016,226.017 777.683,222.85 776.5,219.5C 774.95,218.559 773.284,217.893 771.5,217.5C 761.189,209.987 749.522,205.654 736.5,204.5C 719.431,202.218 702.764,203.718 686.5,209C 685.944,209.383 685.611,209.883 685.5,210.5C 685.167,210.5 684.833,210.5 684.5,210.5C 681.333,211.168 678.833,212.834 677,215.5C 674.658,218.839 672.325,222.173 670,225.5C 669.51,226.793 669.343,228.127 669.5,229.5C 668.522,229.189 667.855,228.522 667.5,227.5C 668.246,226.264 668.579,224.93 668.5,223.5C 671.702,218.941 675.036,214.441 678.5,210C 684.537,207.668 690.537,205.334 696.5,203C 698.473,202.505 700.473,202.338 702.5,202.5C 714.833,201.167 727.167,201.167 739.5,202.5 Z"/></g>
<g><path style="opacity:1" fill="#f5985c" d="M 771.5,217.5 C 755.497,217.333 739.497,217.5 723.5,218C 716.417,218.814 709.583,220.314 703,222.5C 697.289,218.284 691.456,214.284 685.5,210.5C 685.611,209.883 685.944,209.383 686.5,209C 702.764,203.718 719.431,202.218 736.5,204.5C 749.522,205.654 761.189,209.987 771.5,217.5 Z"/></g>
<g><path style="opacity:1" fill="#f3975b" d="M 684.5,210.5 C 684.389,211.117 684.056,211.617 683.5,212C 688.478,215.316 693.145,218.983 697.5,223C 690.757,226.285 683.757,228.952 676.5,231C 675.177,231.816 674.511,232.983 674.5,234.5C 672.5,233.167 670.833,231.5 669.5,229.5C 669.343,228.127 669.51,226.793 670,225.5C 672.325,222.173 674.658,218.839 677,215.5C 678.833,212.834 681.333,211.168 684.5,210.5 Z"/></g>
<g><path style="opacity:1" fill="#0c65c1" d="M 154.5,214.5 C 166.536,212.527 176.703,215.861 185,224.5C 191.928,238.49 189.094,249.99 176.5,259C 165.289,263.077 154.622,262.077 144.5,256C 133.416,243.015 134.082,230.682 146.5,219C 149.354,217.603 152.02,216.103 154.5,214.5 Z"/></g>
<g><path style="opacity:1" fill="#e57126" d="M 684.5,210.5 C 684.833,210.5 685.167,210.5 685.5,210.5C 691.456,214.284 697.289,218.284 703,222.5C 709.583,220.314 716.417,218.814 723.5,218C 739.497,217.5 755.497,217.333 771.5,217.5C 773.284,217.893 774.95,218.559 776.5,219.5C 776.03,220.693 775.03,221.36 773.5,221.5C 750.98,219.407 728.647,220.407 706.5,224.5C 706.421,225.93 706.754,227.264 707.5,228.5C 714.391,235.221 720.724,242.388 726.5,250C 732.215,250.258 737.882,250.758 743.5,251.5C 740.42,255.912 736.42,259.245 731.5,261.5C 729.744,256.581 726.244,254.247 721,254.5C 713.296,254.978 705.796,256.478 698.5,259C 697.244,259.417 696.577,260.25 696.5,261.5C 694.937,260.055 693.604,258.389 692.5,256.5C 699.145,256.051 705.479,254.551 711.5,252C 715.152,251.501 718.818,251.335 722.5,251.5C 721.956,249.42 721.122,247.42 720,245.5C 714,238.833 707.667,232.5 701,226.5C 696.042,226.758 691.542,228.258 687.5,231C 683.34,232.624 679.007,233.791 674.5,234.5C 674.511,232.983 675.177,231.816 676.5,231C 683.757,228.952 690.757,226.285 697.5,223C 693.145,218.983 688.478,215.316 683.5,212C 684.056,211.617 684.389,211.117 684.5,210.5 Z"/></g>
<g><path style="opacity:1" fill="#fb9b5e" d="M 776.5,219.5 C 777.683,222.85 777.016,226.017 774.5,229C 763.761,235.9 753.428,243.4 743.5,251.5C 737.882,250.758 732.215,250.258 726.5,250C 720.724,242.388 714.391,235.221 707.5,228.5C 706.754,227.264 706.421,225.93 706.5,224.5C 728.647,220.407 750.98,219.407 773.5,221.5C 775.03,221.36 776.03,220.693 776.5,219.5 Z"/></g>
<g><path style="opacity:1" fill="#f99a5d" d="M 692.5,256.5 C 686.84,248.845 680.84,241.512 674.5,234.5C 679.007,233.791 683.34,232.624 687.5,231C 691.542,228.258 696.042,226.758 701,226.5C 707.667,232.5 714,238.833 720,245.5C 721.122,247.42 721.956,249.42 722.5,251.5C 718.818,251.335 715.152,251.501 711.5,252C 705.479,254.551 699.145,256.051 692.5,256.5 Z"/></g>
<g><path style="opacity:1" fill="#1d5fc0" d="M 434.5,230.5 C 434.667,265.168 434.5,299.835 434,334.5C 433.5,300.168 433.333,265.835 433.5,231.5C 419.833,231.5 406.167,231.5 392.5,231.5C 392.5,294.167 392.5,356.833 392.5,419.5C 406.167,419.5 419.833,419.5 433.5,419.5C 433.333,400.164 433.5,380.83 434,361.5C 434.5,381.164 434.667,400.831 434.5,420.5C 420.343,421.496 406.01,421.829 391.5,421.5C 391.5,357.5 391.5,293.5 391.5,229.5C 406.01,229.171 420.343,229.504 434.5,230.5 Z"/></g>
<g><path style="opacity:1" fill="#0c66c2" d="M 434.5,230.5 C 435.167,264.669 435.833,299.002 436.5,333.5C 450.853,314.765 465.187,296.098 479.5,277.5C 497.008,277.17 514.341,277.503 531.5,278.5C 530.4,279.605 529.733,280.938 529.5,282.5C 527.367,284.091 525.701,286.091 524.5,288.5C 523.5,288.833 522.833,289.5 522.5,290.5C 521.026,291.436 520.026,292.77 519.5,294.5C 518.167,295.167 517.167,296.167 516.5,297.5C 515.512,298.795 514.512,300.128 513.5,301.5C 512.094,301.973 511.427,302.973 511.5,304.5C 498.055,318.609 485.721,333.609 474.5,349.5C 489.102,368.436 504.435,386.769 520.5,404.5C 520.5,405.167 520.833,405.5 521.5,405.5C 521.328,406.492 521.662,407.158 522.5,407.5C 524.529,409.858 526.529,412.192 528.5,414.5C 529.833,416.5 531.5,418.167 533.5,419.5C 533.389,420.117 533.056,420.617 532.5,421C 514.833,421.667 497.167,421.667 479.5,421C 464.878,401.589 450.378,382.089 436,362.5C 435.832,382.004 435.332,401.338 434.5,420.5C 434.667,400.831 434.5,381.164 434,361.5C 433.5,380.83 433.333,400.164 433.5,419.5C 419.833,419.5 406.167,419.5 392.5,419.5C 392.5,356.833 392.5,294.167 392.5,231.5C 406.167,231.5 419.833,231.5 433.5,231.5C 433.333,265.835 433.5,300.168 434,334.5C 434.5,299.835 434.667,265.168 434.5,230.5 Z"/></g>
<g><path style="opacity:1" fill="#a7a8a8" d="M 561.5,179.5 C 562.167,179.5 562.5,179.833 562.5,180.5C 563.993,198.676 565.659,216.842 567.5,235C 567.693,237.008 567.026,238.508 565.5,239.5C 564.534,219.709 563.201,200.042 561.5,180.5C 561.5,180.167 561.5,179.833 561.5,179.5 Z"/></g>
<g><path style="opacity:1" fill="#0d66c2" d="M 61.5,240.5 C 60.7611,240.369 60.0944,240.536 59.5,241C 60.1644,289.598 60.831,338.098 61.5,386.5C 80.8333,386.5 100.167,386.5 119.5,386.5C 119.5,398.167 119.5,409.833 119.5,421.5C 85.3292,421.832 51.3292,421.498 17.5,420.5C 51.1683,420.667 84.835,420.5 118.5,420C 85.1683,419.5 51.835,419.333 18.5,419.5C 18.8324,360.664 18.499,301.998 17.5,243.5C 17.5,242.167 17.5,240.833 17.5,239.5C 32.3428,239.171 47.0095,239.504 61.5,240.5 Z"/></g>
<g><path style="opacity:1" fill="#004fbc" d="M 61.5,240.5 C 61.5,289.167 61.5,337.833 61.5,386.5C 60.831,338.098 60.1644,289.598 59.5,241C 60.0944,240.536 60.7611,240.369 61.5,240.5 Z"/></g>
<g><path style="opacity:1" fill="#0056be" d="M 17.5,243.5 C 18.499,301.998 18.8324,360.664 18.5,419.5C 51.835,419.333 85.1683,419.5 118.5,420C 84.835,420.5 51.1683,420.667 17.5,420.5C 17.5,361.5 17.5,302.5 17.5,243.5 Z"/></g>
<g><path style="opacity:1" fill="#2c514f" d="M 562.5,180.5 C 566.466,181.162 570.466,181.495 574.5,181.5C 575.5,182.167 576.5,182.833 577.5,183.5C 573.865,182.886 570.198,182.552 566.5,182.5C 567.867,201.836 569.034,221.169 570,240.5C 558.033,258.011 549.2,277.011 543.5,297.5C 542.5,297.5 541.5,297.5 540.5,297.5C 540.5,296.5 540.5,295.5 540.5,294.5C 539.5,294.5 538.5,294.5 537.5,294.5C 536.044,289.707 533.377,285.707 529.5,282.5C 529.733,280.938 530.4,279.605 531.5,278.5C 532.338,278.158 532.672,277.492 532.5,276.5C 537.292,275.16 541.792,275.826 546,278.5C 552.945,265.704 559.445,252.704 565.5,239.5C 567.026,238.508 567.693,237.008 567.5,235C 565.659,216.842 563.993,198.676 562.5,180.5 Z"/></g>
<g><path style="opacity:1" fill="#f6995c" d="M 731.5,261.5 C 726.167,266.167 721.167,271.167 716.5,276.5C 715.094,276.973 714.427,277.973 714.5,279.5C 713.185,280.476 711.852,281.476 710.5,282.5C 708.599,280.994 706.932,279.327 705.5,277.5C 705.108,275.821 704.608,274.154 704,272.5C 701.759,269.221 699.259,266.221 696.5,263.5C 696.5,262.833 696.5,262.167 696.5,261.5C 696.577,260.25 697.244,259.417 698.5,259C 705.796,256.478 713.296,254.978 721,254.5C 726.244,254.247 729.744,256.581 731.5,261.5 Z"/></g>
<g><path style="opacity:1" fill="#166d6a" d="M 574.5,325.5 C 574.157,303.776 572.823,282.109 570.5,260.5C 569.833,264.313 569.166,267.979 568.5,271.5C 568.5,267.5 568.5,263.5 568.5,259.5C 569.833,259.5 571.167,259.5 572.5,259.5C 573.966,280.131 574.799,300.798 575,321.5C 577.019,323.124 576.852,324.457 574.5,325.5 Z"/></g>
<g><path style="opacity:1" fill="#1fa39e" d="M 889.5,266.5 C 918.967,274.256 948.967,277.756 979.5,277C 994.568,277.911 1009.57,279.411 1024.5,281.5C 1033.01,325.64 1015.01,351.14 970.5,358C 958.171,358.5 945.838,358.667 933.5,358.5C 933.667,379.836 933.5,401.169 933,422.5C 918.579,423.49 904.079,423.824 889.5,423.5C 889.5,371.167 889.5,318.833 889.5,266.5 Z"/></g>
<g><path style="opacity:1" fill="#1e3128" d="M 666.5,262.5 C 666.5,262.167 666.5,261.833 666.5,261.5C 668.288,261.215 669.955,261.548 671.5,262.5C 681.009,267.007 688.676,273.674 694.5,282.5C 690.46,278.458 686.127,274.791 681.5,271.5C 676.762,268.102 671.762,265.102 666.5,262.5 Z"/></g>
<g><path style="opacity:1" fill="#f19457" d="M 666.5,262.5 C 671.762,265.102 676.762,268.102 681.5,271.5C 685.102,276.435 689.435,280.768 694.5,284.5C 698.182,286.568 699.515,289.568 698.5,293.5C 693.667,295.243 688.667,295.91 683.5,295.5C 683.5,296.5 683.5,297.5 683.5,298.5C 679.676,298.735 677.676,300.735 677.5,304.5C 675.22,300.741 672.887,296.907 670.5,293C 670.833,292.667 671.167,292.333 671.5,292C 679.627,291.116 687.627,289.616 695.5,287.5C 694,287.167 692.5,286.833 691,286.5C 684.226,287.829 677.393,288.829 670.5,289.5C 668.912,288.99 667.745,287.99 667,286.5C 665.883,291.384 667.217,295.384 671,298.5C 674.041,305.414 677.207,312.247 680.5,319C 680.095,319.945 679.428,320.612 678.5,321C 674.49,321.501 670.49,322.001 666.5,322.5C 666.281,323.675 666.614,324.675 667.5,325.5C 670.758,324.583 674.091,324.249 677.5,324.5C 676.228,328.062 674.228,331.062 671.5,333.5C 669.272,332.781 667.439,331.448 666,329.5C 665.67,310.828 665.17,292.162 664.5,273.5C 664.511,269.435 665.178,265.768 666.5,262.5 Z"/></g>
<g><path style="opacity:1" fill="#20160c" d="M 1068.5,278.5 C 1076.96,282.562 1085.29,286.895 1093.5,291.5C 1093.5,291.833 1093.5,292.167 1093.5,292.5C 1078.62,289.324 1063.62,286.657 1048.5,284.5C 1040.51,283.501 1032.51,282.501 1024.5,281.5C 1009.57,279.411 994.568,277.911 979.5,277C 948.967,277.756 918.967,274.256 889.5,266.5C 876.918,261.874 864.585,256.707 852.5,251C 849.628,248.463 847.128,245.63 845,242.5C 843.058,236.11 844.891,231.277 850.5,228C 859.158,226.038 867.825,226.038 876.5,228C 884.337,230.092 891.837,232.925 899,236.5C 905.97,216.894 914.304,197.894 924,179.5C 935.778,180.459 946.278,184.959 955.5,193C 961.442,196.18 967.442,196.18 973.5,193C 978.853,190.299 984.186,187.632 989.5,185C 994.167,184.333 998.833,184.333 1003.5,185C 1008.87,209.997 1013.53,235.164 1017.5,260.5C 1035.05,265.007 1052.05,271.007 1068.5,278.5 Z"/></g>
<g><path style="opacity:1" fill="#5c310e" d="M 1012.5,261.5 C 1035.16,267 1056.83,275.166 1077.5,286C 1078.7,286.654 1078.7,287.154 1077.5,287.5C 1069.66,285.039 1061.66,283.206 1053.5,282C 1022.92,277.875 992.248,274.542 961.5,272C 955.434,268.976 949.768,265.476 944.5,261.5C 967.275,262.582 989.941,262.582 1012.5,261.5 Z"/></g>
<g><path style="opacity:1" fill="#3b1e08" d="M 904.5,233.5 C 906.269,235.397 908.602,236.564 911.5,237C 943.806,244.195 976.473,246.361 1009.5,243.5C 1009.5,241.833 1009.5,240.167 1009.5,238.5C 1010.8,245.99 1011.8,253.657 1012.5,261.5C 989.941,262.582 967.275,262.582 944.5,261.5C 931.644,254.161 918.644,246.994 905.5,240C 903.392,237.984 903.058,235.817 904.5,233.5 Z"/></g>
<g><path style="opacity:1" fill="#5d310e" d="M 854.5,229.5 C 861.639,229.178 868.639,230.012 875.5,232C 903.204,241.852 929.204,254.852 953.5,271C 917.633,273.032 884.3,265.032 853.5,247C 844.004,240.393 844.337,234.56 854.5,229.5 Z"/></g>
<g><path style="opacity:1" fill="#5d310e" d="M 1009.5,238.5 C 1009.5,240.167 1009.5,241.833 1009.5,243.5C 976.473,246.361 943.806,244.195 911.5,237C 908.602,236.564 906.269,235.397 904.5,233.5C 910.173,216.149 917.506,199.483 926.5,183.5C 931.025,183.275 935.359,184.442 939.5,187C 947.882,193.567 957.215,198.067 967.5,200.5C 969.167,200.333 970.833,200.167 972.5,200C 970.754,199.529 969.087,198.862 967.5,198C 974.422,195.869 981.089,193.202 987.5,190C 991.751,188.805 996.085,188.305 1000.5,188.5C 1003.51,205.204 1006.51,221.87 1009.5,238.5 Z"/></g>
<g><path style="opacity:1" fill="#201304" d="M 941.5,196.5 C 943.552,212.341 936.885,217.508 921.5,212C 929.277,212.34 935.443,209.507 940,203.5C 940.44,201.134 940.94,198.801 941.5,196.5 Z"/></g>
<g><path style="opacity:1" fill="#9f643d" d="M 681.5,271.5 C 686.127,274.791 690.46,278.458 694.5,282.5C 694.5,283.167 694.5,283.833 694.5,284.5C 689.435,280.768 685.102,276.435 681.5,271.5 Z"/></g>
<g><path style="opacity:1" fill="#3688cf" d="M 479.5,277.5 C 496.992,276.503 514.659,276.17 532.5,276.5C 532.672,277.492 532.338,278.158 531.5,278.5C 514.341,277.503 497.008,277.17 479.5,277.5 Z"/></g>
<g><path style="opacity:1" fill="#0b65c1" d="M 359.5,326.5 C 359.5,357.833 359.5,389.167 359.5,420.5C 345.5,420.5 331.5,420.5 317.5,420.5C 316.668,392.003 316.168,363.336 316,334.5C 310.782,316.794 298.949,309.628 280.5,313C 270.786,316.874 264.453,323.708 261.5,333.5C 261.631,332.761 261.464,332.094 261,331.5C 260.667,332.833 260.333,334.167 260,335.5C 259.5,363.498 259.333,391.498 259.5,419.5C 245.833,419.5 232.167,419.5 218.5,419.5C 218.5,372.5 218.5,325.5 218.5,278.5C 232.167,278.5 245.833,278.5 259.5,278.5C 259.334,283.844 259.501,289.177 260,294.5C 260.499,288.843 260.666,283.176 260.5,277.5C 261.327,282.985 261.827,288.652 262,294.5C 280.798,275.137 302.965,270.304 328.5,280C 347.384,289.731 357.718,305.231 359.5,326.5 Z"/></g>
<g><path style="opacity:1" fill="#0f66c2" d="M 758.5,420.5 C 758.667,393.165 758.5,365.831 758,338.5C 757.5,365.498 757.333,392.498 757.5,419.5C 743.833,419.5 730.167,419.5 716.5,419.5C 716.667,383.165 716.5,346.832 716,310.5C 715.833,346.669 715.333,382.669 714.5,418.5C 714.5,418.167 714.5,417.833 714.5,417.5C 714.5,416.167 714.5,414.833 714.5,413.5C 714.5,413.167 714.5,412.833 714.5,412.5C 714.5,378.833 714.5,345.167 714.5,311.5C 714.5,310.833 714.5,310.167 714.5,309.5C 714.5,307.5 714.5,305.5 714.5,303.5C 714.5,297.167 714.5,290.833 714.5,284.5C 714.5,283.833 714.5,283.167 714.5,282.5C 714.5,281.5 714.5,280.5 714.5,279.5C 714.427,277.973 715.094,276.973 716.5,276.5C 721.5,276.5 726.5,276.5 731.5,276.5C 740.506,276.334 749.506,276.5 758.5,277C 759.31,282.751 759.81,288.584 760,294.5C 778.896,275.119 801.063,270.286 826.5,280C 845.554,289.582 856.054,305.082 858,326.5C 858.5,358.165 858.667,389.832 858.5,421.5C 843.921,421.824 829.421,421.49 815,420.5C 814.667,391.5 814.333,362.5 814,333.5C 808.223,316.519 796.389,309.686 778.5,313C 769.268,316.566 763.101,323.066 760,332.5C 759.832,362.003 759.332,391.336 758.5,420.5 Z"/></g>
<g><path style="opacity:1" fill="#0b66c2" d="M 141.5,277.5 C 155.323,278.496 169.323,278.829 183.5,278.5C 183.5,325.5 183.5,372.5 183.5,419.5C 169.323,419.171 155.323,419.504 141.5,420.5C 140.167,372.833 140.167,325.167 141.5,277.5 Z"/></g>
<g><path style="opacity:1" fill="#346fc6" d="M 260.5,277.5 C 260.666,283.176 260.499,288.843 260,294.5C 259.501,289.177 259.334,283.844 259.5,278.5C 245.833,278.5 232.167,278.5 218.5,278.5C 218.5,325.5 218.5,372.5 218.5,419.5C 232.167,419.5 245.833,419.5 259.5,419.5C 259.333,391.498 259.5,363.498 260,335.5C 260.333,334.167 260.667,332.833 261,331.5C 261.464,332.094 261.631,332.761 261.5,333.5C 261.667,362.502 261.5,391.502 261,420.5C 246.333,421.833 231.667,421.833 217,420.5C 216.333,372.833 216.333,325.167 217,277.5C 231.598,276.17 246.098,276.17 260.5,277.5 Z"/></g>
<g><path style="opacity:1" fill="#fcfdfd" d="M 933.5,277.5 C 943.506,277.334 953.506,277.5 963.5,278C 978.797,281.403 984.964,290.903 982,306.5C 980.674,313.823 976.508,318.656 969.5,321C 957.562,322.415 945.562,322.915 933.5,322.5C 933.5,307.5 933.5,292.5 933.5,277.5 Z"/></g>
<g><path style="opacity:1" fill="#2563c2" d="M 141.5,420.5 C 155.323,419.504 169.323,419.171 183.5,419.5C 183.5,372.5 183.5,325.5 183.5,278.5C 169.323,278.829 155.323,278.496 141.5,277.5C 155.657,276.504 169.99,276.171 184.5,276.5C 184.5,324.833 184.5,373.167 184.5,421.5C 169.99,421.829 155.657,421.496 141.5,420.5 Z"/></g>
<g><path style="opacity:1" fill="#fbfbfb" d="M 569.5,325.5 C 564.472,330.361 559.638,335.361 555,340.5C 551.006,345.99 547.34,351.656 544,357.5C 542.966,364.367 543.633,371.033 546,377.5C 549.669,383.649 553.835,389.315 558.5,394.5C 552.844,395.331 547.177,396.165 541.5,397C 538.401,397.387 535.734,398.554 533.5,400.5C 533.167,400.5 532.833,400.5 532.5,400.5C 528.213,401.04 524.213,402.373 520.5,404.5C 504.435,386.769 489.102,368.436 474.5,349.5C 485.721,333.609 498.055,318.609 511.5,304.5C 515.514,304.334 519.514,304.501 523.5,305C 525.421,305.36 527.088,306.194 528.5,307.5C 529.593,311.108 529.76,314.775 529,318.5C 527.217,320.289 526.384,322.456 526.5,325C 526.945,327.59 527.611,330.09 528.5,332.5C 531.93,332.893 535.096,332.227 538,330.5C 539.204,326.284 539.87,321.951 540,317.5C 542.651,314.52 545.651,311.853 549,309.5C 549.667,306.833 550.333,304.167 551,301.5C 553.416,297.372 555.916,293.372 558.5,289.5C 561.135,286.921 563.301,283.921 565,280.5C 566.011,279.663 567.178,279.33 568.5,279.5C 568.778,294.835 569.111,310.168 569.5,325.5 Z"/></g>
<g><path style="opacity:1" fill="#1fa39e" d="M 1307.5,277.5 C 1309.5,277.5 1311.5,277.5 1313.5,277.5C 1313.5,293.167 1313.5,308.833 1313.5,324.5C 1303.65,323.846 1293.98,324.68 1284.5,327C 1274.75,331.317 1269.59,338.817 1269,349.5C 1268.5,374.164 1268.33,398.831 1268.5,423.5C 1253.83,423.5 1239.17,423.5 1224.5,423.5C 1224.5,375.167 1224.5,326.833 1224.5,278.5C 1239.17,278.5 1253.83,278.5 1268.5,278.5C 1268.17,286.196 1268.5,293.862 1269.5,301.5C 1278.86,288.113 1291.53,280.113 1307.5,277.5 Z"/></g>
<g><path style="opacity:1" fill="#23a49f" d="M 1417.5,277.5 C 1419.79,277.244 1421.96,277.577 1424,278.5C 1424.5,293.83 1424.67,309.163 1424.5,324.5C 1415.43,324.119 1406.43,324.619 1397.5,326C 1388.23,328.932 1382.4,335.098 1380,344.5C 1379.67,370.5 1379.33,396.5 1379,422.5C 1364.33,423.833 1349.67,423.833 1335,422.5C 1334.33,374.833 1334.33,327.167 1335,279.5C 1349.43,278.344 1363.93,278.177 1378.5,279C 1379.32,286.421 1379.82,293.921 1380,301.5C 1389.31,288.277 1401.81,280.277 1417.5,277.5 Z"/></g>
<g><path style="opacity:1" fill="#2fa39d" d="M 1068.5,278.5 C 1076.51,278.334 1084.51,278.5 1092.5,279C 1093.46,283.066 1093.8,287.233 1093.5,291.5C 1085.29,286.895 1076.96,282.562 1068.5,278.5 Z"/></g>
<g><path style="opacity:1" fill="#21a49f" d="M 1048.5,284.5 C 1063.62,286.657 1078.62,289.324 1093.5,292.5C 1093.33,317.502 1093.5,342.502 1094,367.5C 1100.54,385.184 1113.04,391.351 1131.5,386C 1140.67,382.162 1146.17,375.329 1148,365.5C 1148.5,336.502 1148.67,307.502 1148.5,278.5C 1163.17,278.5 1177.83,278.5 1192.5,278.5C 1192.5,326.833 1192.5,375.167 1192.5,423.5C 1177.83,423.5 1163.17,423.5 1148.5,423.5C 1148.67,417.158 1148.5,410.825 1148,404.5C 1133.7,421.27 1115.53,427.77 1093.5,424C 1072.06,419.892 1058.23,407.392 1052,386.5C 1050.74,380.878 1049.74,375.211 1049,369.5C 1048.5,341.169 1048.33,312.835 1048.5,284.5 Z"/></g>
<g><path style="opacity:1" fill="#20a49f" d="M 1429.5,278.5 C 1446.08,278.175 1462.58,278.508 1479,279.5C 1489.8,308.911 1500.8,338.244 1512,367.5C 1523.18,338.289 1534.18,308.955 1545,279.5C 1560.76,278.509 1576.59,278.175 1592.5,278.5C 1562.94,349.28 1533.11,419.947 1503,490.5C 1487.23,491.824 1471.4,491.824 1455.5,490.5C 1465.73,467.048 1476.23,443.715 1487,420.5C 1487.67,418.833 1487.67,417.167 1487,415.5C 1467.33,369.967 1448.16,324.3 1429.5,278.5 Z"/></g>
<g><path style="opacity:1" fill="#1d9994" d="M 535.5,278.5 C 544.302,278.445 546.469,282.112 542,289.5C 541.619,285.348 539.453,283.015 535.5,282.5C 535.5,281.167 535.5,279.833 535.5,278.5 Z"/></g>
<g><path style="opacity:1" fill="#28312a" d="M 694.5,282.5 C 696.456,284.114 698.456,285.781 700.5,287.5C 701.23,288.712 702.23,289.712 703.5,290.5C 702.076,292.291 700.742,294.125 699.5,296C 695.619,297.19 691.619,297.857 687.5,298C 685.111,298.739 683.111,299.905 681.5,301.5C 680.624,301.369 679.957,301.702 679.5,302.5C 680.438,303.553 681.605,304.22 683,304.5C 692.815,303.204 702.649,303.204 712.5,304.5C 711.975,305.192 711.308,305.692 710.5,306C 711.337,307.011 711.67,308.178 711.5,309.5C 712.5,309.5 713.5,309.5 714.5,309.5C 714.5,310.167 714.5,310.833 714.5,311.5C 712.712,311.785 711.045,311.452 709.5,310.5C 705.491,305.88 700.491,304.38 694.5,306C 692.112,308.629 690.112,311.462 688.5,314.5C 687.662,314.158 687.328,313.492 687.5,312.5C 689.2,310.79 690.533,308.79 691.5,306.5C 687.192,306.547 682.859,306.213 678.5,305.5C 677.833,305.5 677.5,305.167 677.5,304.5C 677.676,300.735 679.676,298.735 683.5,298.5C 683.5,297.5 683.5,296.5 683.5,295.5C 688.667,295.91 693.667,295.243 698.5,293.5C 699.515,289.568 698.182,286.568 694.5,284.5C 694.5,283.833 694.5,283.167 694.5,282.5 Z"/></g>
<g><path style="opacity:1" fill="#2c2b20" d="M 705.5,277.5 C 706.932,279.327 708.599,280.994 710.5,282.5C 711.852,281.476 713.185,280.476 714.5,279.5C 714.5,280.5 714.5,281.5 714.5,282.5C 713.373,283.122 712.373,283.955 711.5,285C 710.5,285.667 709.5,285.667 708.5,285C 707.219,282.573 706.219,280.073 705.5,277.5 Z"/></g>
<g><path style="opacity:1" fill="#1f7a75" d="M 696.5,263.5 C 699.259,266.221 701.759,269.221 704,272.5C 704.608,274.154 705.108,275.821 705.5,277.5C 706.219,280.073 707.219,282.573 708.5,285C 709.5,285.667 710.5,285.667 711.5,285C 712.373,283.955 713.373,283.122 714.5,282.5C 714.5,283.167 714.5,283.833 714.5,284.5C 713.188,285.145 712.188,286.145 711.5,287.5C 709.955,288.452 708.288,288.785 706.5,288.5C 706.5,289.833 706.5,291.167 706.5,292.5C 703.813,293.664 701.48,295.497 699.5,298C 693.466,299.069 687.466,300.235 681.5,301.5C 683.111,299.905 685.111,298.739 687.5,298C 691.619,297.857 695.619,297.19 699.5,296C 700.742,294.125 702.076,292.291 703.5,290.5C 702.23,289.712 701.23,288.712 700.5,287.5C 702.5,287.5 704.5,287.5 706.5,287.5C 706.657,286.127 706.49,284.793 706,283.5C 705.667,283.833 705.333,284.167 705,284.5C 702.243,277.453 699.409,270.453 696.5,263.5 Z"/></g>
<g><path style="opacity:1" fill="#1fa59f" d="M 714.5,284.5 C 714.5,290.833 714.5,297.167 714.5,303.5C 703.401,302.854 692.401,302.187 681.5,301.5C 687.466,300.235 693.466,299.069 699.5,298C 701.48,295.497 703.813,293.664 706.5,292.5C 706.5,291.167 706.5,289.833 706.5,288.5C 708.288,288.785 709.955,288.452 711.5,287.5C 712.188,286.145 713.188,285.145 714.5,284.5 Z"/></g>
<g><path style="opacity:1" fill="#d9dadb" d="M 522.5,290.5 C 525.455,290.981 527.789,292.481 529.5,295C 526.132,295.543 522.799,295.376 519.5,294.5C 520.026,292.77 521.026,291.436 522.5,290.5 Z"/></g>
<g><path style="opacity:1" fill="#305652" d="M 524.5,288.5 C 527.193,289.552 529.86,290.552 532.5,291.5C 532.958,294.394 532.291,296.894 530.5,299C 525.928,298.213 521.262,297.713 516.5,297.5C 517.167,296.167 518.167,295.167 519.5,294.5C 522.799,295.376 526.132,295.543 529.5,295C 527.789,292.481 525.455,290.981 522.5,290.5C 522.833,289.5 523.5,288.833 524.5,288.5 Z"/></g>
<g><path style="opacity:1" fill="#e57023" d="M 677.5,304.5 C 677.5,305.167 677.833,305.5 678.5,305.5C 679.077,309.493 680.41,313.16 682.5,316.5C 682.333,320.179 680.666,322.846 677.5,324.5C 674.091,324.249 670.758,324.583 667.5,325.5C 666.614,324.675 666.281,323.675 666.5,322.5C 670.49,322.001 674.49,321.501 678.5,321C 679.428,320.612 680.095,319.945 680.5,319C 677.207,312.247 674.041,305.414 671,298.5C 667.217,295.384 665.883,291.384 667,286.5C 667.745,287.99 668.912,288.99 670.5,289.5C 677.393,288.829 684.226,287.829 691,286.5C 692.5,286.833 694,287.167 695.5,287.5C 687.627,289.616 679.627,291.116 671.5,292C 671.167,292.333 670.833,292.667 670.5,293C 672.887,296.907 675.22,300.741 677.5,304.5 Z"/></g>
<g><path style="opacity:1" fill="#16746f" d="M 681.5,301.5 C 692.401,302.187 703.401,302.854 714.5,303.5C 714.5,305.5 714.5,307.5 714.5,309.5C 713.5,309.5 712.5,309.5 711.5,309.5C 711.67,308.178 711.337,307.011 710.5,306C 711.308,305.692 711.975,305.192 712.5,304.5C 702.649,303.204 692.815,303.204 683,304.5C 681.605,304.22 680.438,303.553 679.5,302.5C 679.957,301.702 680.624,301.369 681.5,301.5 Z"/></g>
<g><path style="opacity:1" fill="#faf9f9" d="M 714.5,311.5 C 714.5,345.167 714.5,378.833 714.5,412.5C 712.447,412.598 710.78,411.931 709.5,410.5C 706.73,408.059 703.397,406.726 699.5,406.5C 693.41,404.828 687.41,403.161 681.5,401.5C 684.82,397.346 688.32,393.346 692,389.5C 697.064,379.814 697.73,369.814 694,359.5C 688.784,351.608 682.784,344.275 676,337.5C 675.333,336.5 675.333,335.5 676,334.5C 677.947,332.937 679.114,330.937 679.5,328.5C 682.444,323.871 685.444,319.204 688.5,314.5C 690.112,311.462 692.112,308.629 694.5,306C 700.491,304.38 705.491,305.88 709.5,310.5C 711.045,311.452 712.712,311.785 714.5,311.5 Z"/></g>
<g><path style="opacity:1" fill="#e48e56" d="M 678.5,305.5 C 682.859,306.213 687.192,306.547 691.5,306.5C 690.533,308.79 689.2,310.79 687.5,312.5C 686.441,314.555 684.775,315.889 682.5,316.5C 680.41,313.16 679.077,309.493 678.5,305.5 Z"/></g>
<g><path style="opacity:1" fill="#2a4745" d="M 574.5,325.5 C 563.39,333.785 554.557,344.118 548,356.5C 546.162,359.037 545.329,361.871 545.5,365C 546.335,368.504 547.168,372.004 548,375.5C 553.139,384.486 559.639,392.486 567.5,399.5C 570.068,400.868 572.401,400.534 574.5,398.5C 575.498,390.193 575.831,381.86 575.5,373.5C 592.02,370.82 608.687,369.987 625.5,371C 636.513,372.478 647.513,374.145 658.5,376C 660.544,376.498 661.878,377.665 662.5,379.5C 654.012,378.308 645.679,376.475 637.5,374C 623.167,373.333 608.833,373.333 594.5,374C 592.292,374.191 590.292,374.691 588.5,375.5C 585.482,375.335 582.482,375.502 579.5,376C 579,376.5 578.5,377 578,377.5C 577.347,383.862 577.513,390.195 578.5,396.5C 577.662,396.842 577.328,397.508 577.5,398.5C 575.523,400.739 573.023,402.073 570,402.5C 567.378,401.375 564.878,400.041 562.5,398.5C 562.167,397.5 561.5,396.833 560.5,396.5C 559.833,395.833 559.167,395.167 558.5,394.5C 553.835,389.315 549.669,383.649 546,377.5C 543.633,371.033 542.966,364.367 544,357.5C 547.34,351.656 551.006,345.99 555,340.5C 559.638,335.361 564.472,330.361 569.5,325.5C 570.83,319.705 571.496,313.538 571.5,307C 571.432,296.479 570.932,285.979 570,275.5C 569.586,275.043 569.086,274.709 568.5,274.5C 564.33,278.992 560.997,283.992 558.5,289.5C 555.916,293.372 553.416,297.372 551,301.5C 550.333,304.167 549.667,306.833 549,309.5C 545.651,311.853 542.651,314.52 540,317.5C 539.87,321.951 539.204,326.284 538,330.5C 535.096,332.227 531.93,332.893 528.5,332.5C 527.611,330.09 526.945,327.59 526.5,325C 526.384,322.456 527.217,320.289 529,318.5C 529.76,314.775 529.593,311.108 528.5,307.5C 527.088,306.194 525.421,305.36 523.5,305C 519.514,304.501 515.514,304.334 511.5,304.5C 511.427,302.973 512.094,301.973 513.5,301.5C 517.582,301.344 521.582,301.844 525.5,303C 533.541,306.793 535.375,312.626 531,320.5C 530.502,323.482 530.335,326.482 530.5,329.5C 532.821,329.771 534.821,329.104 536.5,327.5C 537.062,322.647 538.229,317.98 540,313.5C 542.339,312.443 544.505,311.11 546.5,309.5C 547.305,306.696 547.972,303.862 548.5,301C 554.217,292.4 559.55,283.566 564.5,274.5C 565.569,273.09 566.903,272.09 568.5,271.5C 569.166,267.979 569.833,264.313 570.5,260.5C 572.823,282.109 574.157,303.776 574.5,325.5 Z"/></g>
<g><path style="opacity:1" fill="#cbcccc" d="M 569.5,325.5 C 569.111,310.168 568.778,294.835 568.5,279.5C 567.178,279.33 566.011,279.663 565,280.5C 563.301,283.921 561.135,286.921 558.5,289.5C 560.997,283.992 564.33,278.992 568.5,274.5C 569.086,274.709 569.586,275.043 570,275.5C 570.932,285.979 571.432,296.479 571.5,307C 571.496,313.538 570.83,319.705 569.5,325.5 Z"/></g>
<g><path style="opacity:1" fill="#1f5fc1" d="M 758.5,420.5 C 744.339,421.661 730.006,421.827 715.5,421C 714.944,420.617 714.611,420.117 714.5,419.5C 714.5,419.167 714.5,418.833 714.5,418.5C 715.333,382.669 715.833,346.669 716,310.5C 716.5,346.832 716.667,383.165 716.5,419.5C 730.167,419.5 743.833,419.5 757.5,419.5C 757.333,392.498 757.5,365.498 758,338.5C 758.5,365.831 758.667,393.165 758.5,420.5 Z"/></g>
<g><path style="opacity:1" fill="#123732" d="M 664.5,261.5 C 664.104,283.994 664.104,306.66 664.5,329.5C 663.168,318.353 662.501,306.853 662.5,295C 662.833,283.5 663.167,272 663.5,260.5C 664.107,260.624 664.44,260.957 664.5,261.5 Z"/></g>
<g><path style="opacity:1" fill="#4b3828" d="M 664.5,261.5 C 665.167,261.5 665.833,261.5 666.5,261.5C 666.5,261.833 666.5,262.167 666.5,262.5C 665.178,265.768 664.511,269.435 664.5,273.5C 665.17,292.162 665.67,310.828 666,329.5C 667.439,331.448 669.272,332.781 671.5,333.5C 674.228,331.062 676.228,328.062 677.5,324.5C 680.666,322.846 682.333,320.179 682.5,316.5C 684.775,315.889 686.441,314.555 687.5,312.5C 687.328,313.492 687.662,314.158 688.5,314.5C 685.444,319.204 682.444,323.871 679.5,328.5C 676.723,330.951 674.723,333.951 673.5,337.5C 669.233,336.232 666.233,333.565 664.5,329.5C 664.104,306.66 664.104,283.994 664.5,261.5 Z"/></g>
<g><path style="opacity:1" fill="#3c81cd" d="M 359.5,326.5 C 360.498,357.996 360.832,389.662 360.5,421.5C 345.99,421.829 331.657,421.496 317.5,420.5C 331.5,420.5 345.5,420.5 359.5,420.5C 359.5,389.167 359.5,357.833 359.5,326.5 Z"/></g>
<g><path style="opacity:1" fill="#b9b9b9" d="M 662.5,379.5 C 663.833,387.5 663.833,395.5 662.5,403.5C 662.167,403.5 661.833,403.5 661.5,403.5C 661.691,395.799 661.358,388.132 660.5,380.5C 649.586,379.131 638.919,377.297 628.5,375C 615.152,374.334 601.819,374.501 588.5,375.5C 590.292,374.691 592.292,374.191 594.5,374C 608.833,373.333 623.167,373.333 637.5,374C 645.679,376.475 654.012,378.308 662.5,379.5 Z"/></g>
<g><path style="opacity:1" fill="#2b4a46" d="M 679.5,328.5 C 679.114,330.937 677.947,332.937 676,334.5C 675.333,335.5 675.333,336.5 676,337.5C 682.784,344.275 688.784,351.608 694,359.5C 697.73,369.814 697.064,379.814 692,389.5C 688.32,393.346 684.82,397.346 681.5,401.5C 678.127,404.178 674.794,406.844 671.5,409.5C 669.079,409.122 666.746,408.455 664.5,407.5C 664.34,405.847 663.674,404.514 662.5,403.5C 663.833,395.5 663.833,387.5 662.5,379.5C 664.428,382.842 665.428,386.675 665.5,391C 662.992,409.824 668.159,412.324 681,398.5C 683.622,394.543 686.622,390.876 690,387.5C 693.625,379.046 694.291,370.379 692,361.5C 686.072,353.308 679.905,345.308 673.5,337.5C 674.723,333.951 676.723,330.951 679.5,328.5 Z"/></g>
<g><path style="opacity:1" fill="#cc8266" d="M 558.5,394.5 C 559.167,395.167 559.833,395.833 560.5,396.5C 551.205,396.44 542.205,397.773 533.5,400.5C 535.734,398.554 538.401,397.387 541.5,397C 547.177,396.165 552.844,395.331 558.5,394.5 Z"/></g>
<g><path style="opacity:1" fill="#c85f0a" d="M 560.5,396.5 C 561.5,396.833 562.167,397.5 562.5,398.5C 548.248,398.309 534.914,401.309 522.5,407.5C 521.662,407.158 521.328,406.492 521.5,405.5C 525.609,404.609 529.276,402.942 532.5,400.5C 532.833,400.5 533.167,400.5 533.5,400.5C 542.205,397.773 551.205,396.44 560.5,396.5 Z"/></g>
<g><path style="opacity:1" fill="#f29903" d="M 562.5,398.5 C 564.878,400.041 567.378,401.375 570,402.5C 573.023,402.073 575.523,400.739 577.5,398.5C 582.47,399.764 583.47,402.43 580.5,406.5C 572.127,409.939 563.794,413.439 555.5,417C 553.833,418 552.5,419.333 551.5,421C 549.527,421.495 547.527,421.662 545.5,421.5C 545.489,419.983 544.823,418.816 543.5,418C 540.167,417.667 536.833,417.333 533.5,417C 532.019,416.02 530.685,414.853 529.5,413.5C 528.893,413.624 528.56,413.957 528.5,414.5C 526.529,412.192 524.529,409.858 522.5,407.5C 534.914,401.309 548.248,398.309 562.5,398.5 Z"/></g>
<g><path style="opacity:1" fill="#db9e8a" d="M 532.5,400.5 C 529.276,402.942 525.609,404.609 521.5,405.5C 520.833,405.5 520.5,405.167 520.5,404.5C 524.213,402.373 528.213,401.04 532.5,400.5 Z"/></g>
<g><path style="opacity:1" fill="#c86727" d="M 681.5,401.5 C 687.41,403.161 693.41,404.828 699.5,406.5C 702.309,408.897 705.642,410.23 709.5,410.5C 710.78,411.931 712.447,412.598 714.5,412.5C 714.5,412.833 714.5,413.167 714.5,413.5C 711.09,413.543 707.757,413.043 704.5,412C 693.923,405.884 682.923,405.05 671.5,409.5C 674.794,406.844 678.127,404.178 681.5,401.5 Z"/></g>
<g><path style="opacity:1" fill="#f39903" d="M 664.5,407.5 C 666.746,408.455 669.079,409.122 671.5,409.5C 682.923,405.05 693.923,405.884 704.5,412C 707.757,413.043 711.09,413.543 714.5,413.5C 714.5,414.833 714.5,416.167 714.5,417.5C 712.801,417.34 711.134,417.506 709.5,418C 706.965,420.037 704.298,421.87 701.5,423.5C 697.893,424.489 694.226,424.823 690.5,424.5C 690.915,426.948 689.915,428.281 687.5,428.5C 681.202,425.686 674.869,422.853 668.5,420C 666.527,419.505 664.527,419.338 662.5,419.5C 659.271,416.903 655.771,414.569 652,412.5C 652.019,410.893 652.185,409.226 652.5,407.5C 656.548,406.322 660.548,406.322 664.5,407.5 Z"/></g>
<g><path style="opacity:1" fill="#c96221" d="M 578.5,396.5 C 580.833,398.167 583.167,399.833 585.5,401.5C 585.643,403.262 585.309,404.929 584.5,406.5C 579.664,409.487 574.497,411.821 569,413.5C 567.97,413.836 567.47,414.503 567.5,415.5C 563.838,416.671 560.504,418.504 557.5,421C 553.693,422.881 549.693,424.047 545.5,424.5C 545.5,423.5 545.5,422.5 545.5,421.5C 547.527,421.662 549.527,421.495 551.5,421C 552.5,419.333 553.833,418 555.5,417C 563.794,413.439 572.127,409.939 580.5,406.5C 583.47,402.43 582.47,399.764 577.5,398.5C 577.328,397.508 577.662,396.842 578.5,396.5 Z"/></g>
<g><path style="opacity:1" fill="#d38b74" d="M 699.5,406.5 C 703.397,406.726 706.73,408.059 709.5,410.5C 705.642,410.23 702.309,408.897 699.5,406.5 Z"/></g>
<g><path style="opacity:1" fill="#dea695" d="M 585.5,401.5 C 586.649,401.791 587.316,402.624 587.5,404C 586.76,406.244 585.426,408.077 583.5,409.5C 578.426,412.105 573.093,414.105 567.5,415.5C 567.47,414.503 567.97,413.836 569,413.5C 574.497,411.821 579.664,409.487 584.5,406.5C 585.309,404.929 585.643,403.262 585.5,401.5 Z"/></g>
<g><path style="opacity:1" fill="#ca6b3c" d="M 661.5,403.5 C 661.833,403.5 662.167,403.5 662.5,403.5C 663.674,404.514 664.34,405.847 664.5,407.5C 660.548,406.322 656.548,406.322 652.5,407.5C 652.185,409.226 652.019,410.893 652,412.5C 655.771,414.569 659.271,416.903 662.5,419.5C 665.5,421.263 668.833,422.429 672.5,423C 673.571,423.852 674.571,424.685 675.5,425.5C 665.889,423.451 657.056,419.451 649,413.5C 648.146,410.593 648.979,408.26 651.5,406.5C 654.521,404.577 657.854,403.577 661.5,403.5 Z"/></g>
<g><path style="opacity:1" fill="#c85915" d="M 545.5,421.5 C 541.813,419.657 537.813,418.99 533.5,419.5C 531.5,418.167 529.833,416.5 528.5,414.5C 528.56,413.957 528.893,413.624 529.5,413.5C 530.685,414.853 532.019,416.02 533.5,417C 536.833,417.333 540.167,417.667 543.5,418C 544.823,418.816 545.489,419.983 545.5,421.5 Z"/></g>
<g><path style="opacity:1" fill="#c85e19" d="M 714.5,417.5 C 714.5,417.833 714.5,418.167 714.5,418.5C 714.5,418.833 714.5,419.167 714.5,419.5C 709.767,419.709 706.1,421.875 703.5,426C 699.789,426.175 696.122,426.675 692.5,427.5C 691.388,428.265 690.721,429.265 690.5,430.5C 686.767,430.13 683.101,429.463 679.5,428.5C 677.77,427.974 676.436,426.974 675.5,425.5C 674.571,424.685 673.571,423.852 672.5,423C 668.833,422.429 665.5,421.263 662.5,419.5C 664.527,419.338 666.527,419.505 668.5,420C 674.869,422.853 681.202,425.686 687.5,428.5C 689.915,428.281 690.915,426.948 690.5,424.5C 694.226,424.823 697.893,424.489 701.5,423.5C 704.298,421.87 706.965,420.037 709.5,418C 711.134,417.506 712.801,417.34 714.5,417.5 Z"/></g>
<g><path style="opacity:1" fill="#d7947b" d="M 679.5,428.5 C 683.101,429.463 686.767,430.13 690.5,430.5C 690.134,431.695 689.301,432.361 688,432.5C 685.015,431.255 682.182,429.922 679.5,428.5 Z"/></g>
</svg>
